<svg xmlns="http://www.w3.org/2000/svg" xmlns:xlink="http://www.w3.org/1999/xlink" width="44" height="42" viewBox="0 0 44 42">
  <defs>
    <style>
      .cls-1 {
        fill: #5330ad;
      }

      .cls-2 {
        filter: url(#Path_55);
      }
    </style>
    <filter id="Path_55" x="0" y="0" width="44" height="42" filterUnits="userSpaceOnUse">
      <feOffset dy="3" input="SourceAlpha"/>
      <feGaussianBlur stdDeviation="3" result="blur"/>
      <feFlood flood-opacity="0.161"/>
      <feComposite operator="in" in2="blur"/>
      <feComposite in="SourceGraphic"/>
    </filter>
  </defs>
  <g class="cls-2" transform="matrix(1, 0, 0, 1, 0, 0)">
    <path id="Path_55-2" data-name="Path 55" class="cls-1" d="M25.3,10.439l0,0L14.693.647a2.537,2.537,0,0,0-3.385,0L.706,10.432l-.011.01a2.093,2.093,0,0,0,0,3.12,2.477,2.477,0,0,0,1.588.644q.037,0,.074,0h.423v7.2A2.7,2.7,0,0,0,5.587,24h4.15a.734.734,0,0,0,.762-.7V17.648a1.233,1.233,0,0,1,1.278-1.18h2.448a1.233,1.233,0,0,1,1.278,1.18V23.3a.734.734,0,0,0,.762.7h4.15a2.7,2.7,0,0,0,2.8-2.586v-7.2h.392a2.483,2.483,0,0,0,1.693-.647,2.094,2.094,0,0,0,0-3.124Z" transform="translate(9 6)"/>
  </g>
</svg>
