<svg xmlns="http://www.w3.org/2000/svg" xmlns:xlink="http://www.w3.org/1999/xlink" width="44" height="42.274" viewBox="0 0 44 42.274">
  <defs>
    <filter id="Path_57" x="0" y="0" width="34.92" height="35.773" filterUnits="userSpaceOnUse">
      <feOffset dy="3" input="SourceAlpha"/>
      <feGaussianBlur stdDeviation="3" result="blur"/>
      <feFlood flood-opacity="0.161"/>
      <feComposite operator="in" in2="blur"/>
      <feComposite in="SourceGraphic"/>
    </filter>
    <filter id="Path_58" x="8.201" y="6.5" width="35.799" height="35.774" filterUnits="userSpaceOnUse">
      <feOffset dy="3" input="SourceAlpha"/>
      <feGaussianBlur stdDeviation="3" result="blur-2"/>
      <feFlood flood-opacity="0.161"/>
      <feComposite operator="in" in2="blur-2"/>
      <feComposite in="SourceGraphic"/>
    </filter>
  </defs>
  <g id="Group_201" data-name="Group 201" transform="translate(9 6)">
    <g transform="matrix(1, 0, 0, 1, -9, -6)" filter="url(#Path_57)">
      <path id="Path_57-2" data-name="Path 57" d="M16.92,4.979A8.919,8.919,0,0,0,0,8.887a8.791,8.791,0,0,0,.85,3.8L.015,16.862a.762.762,0,0,0,.895.9l4.229-.836a8.76,8.76,0,0,0,1.764.617A10.421,10.421,0,0,1,16.92,4.979Z" transform="translate(9 6)" fill="#5330ad"/>
    </g>
    <g transform="matrix(1, 0, 0, 1, -9, -6)" filter="url(#Path_58)">
      <path id="Path_58-2" data-name="Path 58" d="M25.149,19.184a8.839,8.839,0,0,0,.381-.94H25.5a8.9,8.9,0,0,0-8-11.734h0a8.886,8.886,0,1,0-.427,17.763,8.789,8.789,0,0,0,3.787-.85c4.632.916,4.27.851,4.377.851a.762.762,0,0,0,.747-.911Z" transform="translate(9 6)" fill="#5330ad"/>
    </g>
  </g>
</svg>
