<svg xmlns="http://www.w3.org/2000/svg" xmlns:xlink="http://www.w3.org/1999/xlink" width="44.5" height="43.938" viewBox="0 0 44.5 43.938">
  <defs>
    <style>
      .cls-1 {
        fill: #5330ad;
      }

      .cls-2 {
        filter: url(#Path_68);
      }

      .cls-3 {
        filter: url(#Path_67);
      }
    </style>
    <filter id="Path_67" x="8.844" y="0" width="35.656" height="43.938" filterUnits="userSpaceOnUse">
      <feOffset dy="3" input="SourceAlpha"/>
      <feGaussianBlur stdDeviation="3" result="blur"/>
      <feFlood flood-opacity="0.161"/>
      <feComposite operator="in" in2="blur"/>
      <feComposite in="SourceGraphic"/>
    </filter>
    <filter id="Path_68" x="0" y="8.26" width="24.624" height="34.573" filterUnits="userSpaceOnUse">
      <feOffset dy="3" input="SourceAlpha"/>
      <feGaussianBlur stdDeviation="3" result="blur-2"/>
      <feFlood flood-opacity="0.161"/>
      <feComposite operator="in" in2="blur-2"/>
      <feComposite in="SourceGraphic"/>
    </filter>
  </defs>
  <g id="PngItem_2973625" transform="translate(9 6)">
    <g class="cls-3" transform="matrix(1, 0, 0, 1, -9, -6)">
      <path id="Path_67-2" data-name="Path 67" class="cls-1" d="M334.078-959.5a1.436,1.436,0,0,0-.187.273c-.086.146-1.4,2.244-2.909,4.669s-2.8,4.5-2.863,4.623a1.387,1.387,0,0,1-.308.411,2.314,2.314,0,0,0-.66,1.2c-.022.122-.027,1.709-.022,5.472l.008,5.3.062.189a2.246,2.246,0,0,0,1.949,1.571c.133.011,1.768.406,4.626,1.122l4.42,1.1.2-.024a2.218,2.218,0,0,0,1.319-.633,2.238,2.238,0,0,0,.646-1.409c.016-.157.384-1.195,2.222-6.245l2.2-6.056-.016-.189a2.22,2.22,0,0,0-1.327-1.833c-.427-.178-.016-.165-4.983-.181l-4.5-.014-.092-.208a1.392,1.392,0,0,1-.17-.681l.011-.165,1.163-1.744a17.4,17.4,0,0,0,1.276-2.02,4.281,4.281,0,0,0,.338-1.617,1.786,1.786,0,0,0-.157-.854,14.621,14.621,0,0,0-1.628-1.617,3.949,3.949,0,0,1-.346-.265C334.137-959.509,334.124-959.517,334.078-959.5Z" transform="translate(-309.28 965.51)"/>
    </g>
    <g class="cls-2" transform="matrix(1, 0, 0, 1, -9, -6)">
      <path id="Path_68-2" data-name="Path 68" class="cls-1" d="M0-645.714v8.286H6.624V-654H0Zm3.52,4.991a1.149,1.149,0,0,1,.787.616.757.757,0,0,1,.087.462.776.776,0,0,1-.087.465,1.1,1.1,0,0,1-.827.625,1.1,1.1,0,0,1-1.163-.625.776.776,0,0,1-.087-.465.746.746,0,0,1,.089-.465,1.132,1.132,0,0,1,.749-.606A.853.853,0,0,1,3.52-640.723Z" transform="translate(9 668.26)"/>
    </g>
  </g>
</svg>
