<svg xmlns="http://www.w3.org/2000/svg" xmlns:xlink="http://www.w3.org/1999/xlink" width="39.692" height="44" viewBox="0 0 39.692 44">
  <defs>
    <style>
      .cls-1 {
        fill: #5330ad;
      }

      .cls-2 {
        filter: url(#Path_62);
      }

      .cls-3 {
        filter: url(#Path_61);
      }
    </style>
    <filter id="Path_61" x="4.42" y="0" width="30.525" height="30.524" filterUnits="userSpaceOnUse">
      <feOffset dy="3" input="SourceAlpha"/>
      <feGaussianBlur stdDeviation="3" result="blur"/>
      <feFlood flood-opacity="0.161"/>
      <feComposite operator="in" in2="blur"/>
      <feComposite in="SourceGraphic"/>
    </filter>
    <filter id="Path_62" x="0" y="12.559" width="39.692" height="31.441" filterUnits="userSpaceOnUse">
      <feOffset dy="3" input="SourceAlpha"/>
      <feGaussianBlur stdDeviation="3" result="blur-2"/>
      <feFlood flood-opacity="0.161"/>
      <feComposite operator="in" in2="blur-2"/>
      <feComposite in="SourceGraphic"/>
    </filter>
  </defs>
  <g id="Group_205" data-name="Group 205" transform="translate(9 6)">
    <g class="cls-3" transform="matrix(1, 0, 0, 1, -9, -6)">
      <path id="Path_61-2" data-name="Path 61" class="cls-1" d="M12.815,12.524a6.06,6.06,0,0,0,4.428-1.835,6.06,6.06,0,0,0,1.834-4.428,6.06,6.06,0,0,0-1.835-4.428A6.061,6.061,0,0,0,12.815,0,6.059,6.059,0,0,0,8.387,1.834,6.059,6.059,0,0,0,6.553,6.262,6.059,6.059,0,0,0,8.388,10.69,6.061,6.061,0,0,0,12.815,12.524Z" transform="translate(6.87 6)"/>
    </g>
    <g class="cls-2" transform="matrix(1, 0, 0, 1, -9, -6)">
      <path id="Path_62-2" data-name="Path 62" class="cls-1" d="M23.772,19.993a15.475,15.475,0,0,0-.211-1.643,12.93,12.93,0,0,0-.4-1.652,8.155,8.155,0,0,0-.679-1.54,5.809,5.809,0,0,0-1.024-1.334,4.515,4.515,0,0,0-1.471-.924,5.084,5.084,0,0,0-1.878-.34,1.906,1.906,0,0,0-1.018.432c-.305.2-.662.429-1.06.684a6.073,6.073,0,0,1-1.372.6,5.326,5.326,0,0,1-3.356,0,6.058,6.058,0,0,1-1.371-.6c-.395-.252-.752-.482-1.061-.684a1.9,1.9,0,0,0-1.017-.432,5.078,5.078,0,0,0-1.878.34,4.51,4.51,0,0,0-1.471.924,5.811,5.811,0,0,0-1.024,1.334A8.173,8.173,0,0,0,2.8,16.7a12.972,12.972,0,0,0-.4,1.652,15.412,15.412,0,0,0-.211,1.643c-.035.5-.052,1.014-.052,1.535a4.317,4.317,0,0,0,1.282,3.266A4.616,4.616,0,0,0,6.719,26H19.238a4.615,4.615,0,0,0,3.3-1.205,4.315,4.315,0,0,0,1.282-3.266C23.824,21,23.807,20.488,23.772,19.993Z" transform="translate(6.87 6)"/>
    </g>
  </g>
</svg>
