<svg xmlns="http://www.w3.org/2000/svg" width="48.125" height="35" viewBox="0 0 48.125 35">
  <path id="Path_155" data-name="Path 155" d="M31.708,21.834a8.75,8.75,0,1,0-8.75-8.75A8.748,8.748,0,0,0,31.708,21.834ZM12.021,17.459V13.084a2.187,2.187,0,1,0-4.375,0v4.375H3.271a2.188,2.188,0,0,0,0,4.375H7.646v4.375a2.187,2.187,0,1,0,4.375,0V21.834H16.4a2.188,2.188,0,0,0,0-4.375Zm2.188,17.5c0-5.819,11.659-8.75,17.5-8.75s17.5,2.931,17.5,8.75v2.188a2.194,2.194,0,0,1-2.187,2.187H16.4a2.194,2.194,0,0,1-2.187-2.187Z" transform="translate(-1.083 -4.333)" fill="#fff" fill-rule="evenodd"/>
</svg>
