<svg id="Group_269" data-name="Group 269" xmlns="http://www.w3.org/2000/svg" width="35" height="35" viewBox="0 0 35 35">
  <path id="Path_124" data-name="Path 124" d="M13.305,5.557,10.875,10.9,5.527,13.334l5.347,2.431,2.43,5.347,2.431-5.347,5.347-2.431L15.736,10.9Z" transform="translate(4.146 4.167)" fill="#fff"/>
  <path id="Path_125" data-name="Path 125" d="M16.2,8.772l1.828,4.005,1.828-4.005,4.006-1.828L19.858,5.116,18.031,1.111,16.2,5.116,12.2,6.944Z" transform="translate(9.148 0.833)" fill="#fff"/>
  <path id="Path_126" data-name="Path 126" d="M31.111,13.611v17.5H3.85V3.889h17.5V0H3.889A3.9,3.9,0,0,0,0,3.889V31.111A3.9,3.9,0,0,0,3.889,35H31.111A3.9,3.9,0,0,0,35,31.111v-17.5Z" fill="#fff"/>
</svg>
