<svg xmlns="http://www.w3.org/2000/svg" width="38.889" height="35" viewBox="0 0 38.889 35">
  <path id="Path_154" data-name="Path 154" d="M37.167,7.139H31L28.592,4.514A3.87,3.87,0,0,0,25.734,3.25H17.489a3.945,3.945,0,0,0-2.878,1.264L12.22,7.139H6.056a3.9,3.9,0,0,0-3.889,3.889V34.361A3.9,3.9,0,0,0,6.056,38.25H37.167a3.9,3.9,0,0,0,3.889-3.889V11.028A3.9,3.9,0,0,0,37.167,7.139ZM21.611,12.972a9.694,9.694,0,0,1,7.739,3.889H21.611a5.794,5.794,0,0,0-5.483,7.778H12.084a10.633,10.633,0,0,1-.194-1.945A9.726,9.726,0,0,1,21.611,12.972ZM13.872,28.528a9.7,9.7,0,0,0,17.461-5.833,9.155,9.155,0,0,0-.195-1.944H27.095a5.794,5.794,0,0,1-5.483,7.778Z" transform="translate(-2.167 -3.25)" fill="#fff" fill-rule="evenodd"/>
</svg>
