<svg id="Group_335" data-name="Group 335" xmlns="http://www.w3.org/2000/svg" width="31" height="31" viewBox="0 0 31 31">
  <path id="Path_201" data-name="Path 201" d="M17.9,6.5v9.232a1.542,1.542,0,0,0-.98,1.425,1.576,1.576,0,0,0,1.6,1.546,1.62,1.62,0,0,0,1.32-.669H26.1V16.28H19.847a1.6,1.6,0,0,0-.784-.579V6.5Z" transform="translate(-3.471 -1.333)" fill="#3b3b3b"/>
  <path id="Path_202" data-name="Path 202" d="M32.329,15.5A15.49,15.49,0,0,0,6.478,3.974L8.263,5.962A12.822,12.822,0,1,1,23.28,26.582l-.927-1.729-3.029,4.632L25.649,31l-1.106-2.063A15.5,15.5,0,0,0,32.329,15.5Z" transform="translate(-1.329 0)" fill="#3b3b3b"/>
  <path id="Path_203" data-name="Path 203" d="M7.8,34.529a15.5,15.5,0,0,0,3.722,2.07l1-2.478a12.8,12.8,0,0,1-3.16-1.758Z" transform="translate(-1.6 -6.639)" fill="#3b3b3b"/>
  <path id="Path_204" data-name="Path 204" d="M2.673,19.36c0-.148,0-.3.008-.442l-2.671-.1C0,19,0,19.178,0,19.36a15.457,15.457,0,0,0,.584,4.22L3.038,22.4A12.807,12.807,0,0,1,2.673,19.36Z" transform="translate(0 -3.86)" fill="#3b3b3b"/>
  <path id="Path_205" data-name="Path 205" d="M1.721,27.107a15.531,15.531,0,0,0,2.3,3.632l2.015-1.755A12.848,12.848,0,0,1,3.961,25.55Z" transform="translate(-0.353 -5.241)" fill="#3b3b3b"/>
  <path id="Path_206" data-name="Path 206" d="M5.125,9.786,2.944,8.243A15.434,15.434,0,0,0,.456,13.854l2.585.695A12.781,12.781,0,0,1,5.125,9.786Z" transform="translate(-0.093 -1.691)" fill="#3b3b3b"/>
  <path id="Path_207" data-name="Path 207" d="M18.8,35.589a12.848,12.848,0,0,1-2.208-.191l-.5,2.627a15.569,15.569,0,0,0,2.7.236c.458,0,.91-.021,1.358-.06l-.838-2.624C19.15,35.585,18.977,35.589,18.8,35.589Z" transform="translate(-3.302 -7.261)" fill="#3b3b3b"/>
</svg>
