<svg xmlns="http://www.w3.org/2000/svg" width="607.375" height="791" viewBox="0 0 607.375 791">
  <g id="Group_215" data-name="Group 215" transform="translate(-6.621 -6.621)">
    <path id="Path_79" data-name="Path 79" d="M205.689,105.5a98.875,98.875,0,1,1,98.875,98.875A98.875,98.875,0,0,1,205.689,105.5ZM417.566,232.622A98.986,98.986,0,0,1,516.439,331.5v113a42.375,42.375,0,0,1-84.75,0v-113a14.125,14.125,0,1,0-28.249,0V755.246a42.375,42.375,0,1,1-84.75,0V571.621a14.126,14.126,0,0,0-28.251,0V755.246a42.375,42.375,0,1,1-84.75,0V331.5a14.125,14.125,0,1,0-28.249,0v113a42.375,42.375,0,0,1-84.75,0v-113a98.988,98.988,0,0,1,98.876-98.875Z" transform="translate(97.556 0)" fill="rgba(254,133,140,0.35)"/>
    <path id="Path_80" data-name="Path 80" d="M105.5,20.746V783.5a14.125,14.125,0,0,1-14.125,14.124H20.746A14.124,14.124,0,0,1,6.621,783.5V755.246H49A14.125,14.125,0,1,0,49,727H6.621V698.745h28.25a14.125,14.125,0,1,0,0-28.249H6.621V642.247H49A14.126,14.126,0,0,0,49,614H6.621V585.746h28.25a14.125,14.125,0,1,0,0-28.249H6.621V529.246H49A14.125,14.125,0,1,0,49,501H6.621V472.745h28.25a14.125,14.125,0,1,0,0-28.249H6.621V416.247H49A14.126,14.126,0,0,0,49,388H6.621V359.746h28.25a14.125,14.125,0,1,0,0-28.249H6.621V303.246H49A14.125,14.125,0,1,0,49,275H6.621V246.745h28.25a14.125,14.125,0,1,0,0-28.249H6.621v-28.25H49A14.125,14.125,0,1,0,49,162H6.621v-28.25h28.25a14.125,14.125,0,0,0,0-28.25H6.621V77.246H49A14.125,14.125,0,1,0,49,49H6.621V20.746A14.125,14.125,0,0,1,20.746,6.621H91.371A14.125,14.125,0,0,1,105.5,20.746Z" transform="translate(0 0)" fill="rgba(254,133,140,0.35)"/>
  </g>
</svg>
