<svg id="Group_335" data-name="Group 335" xmlns="http://www.w3.org/2000/svg" width="39" height="39" viewBox="0 0 39 39">
  <path id="Path_201" data-name="Path 201" d="M18.156,6.5V18.115a1.94,1.94,0,0,0-1.233,1.793,1.982,1.982,0,0,0,2.017,1.945,2.038,2.038,0,0,0,1.661-.841h7.865V18.8H20.6a2.012,2.012,0,0,0-.986-.728V6.5Z" fill="#654aab"/>
  <path id="Path_202" data-name="Path 202" d="M39,19.5A19.488,19.488,0,0,0,6.478,5L8.723,7.5A16.131,16.131,0,1,1,27.616,33.442L26.45,31.267l-3.81,5.828L30.6,39l-1.391-2.595A19.505,19.505,0,0,0,39,19.5Z" fill="#654aab"/>
  <path id="Path_203" data-name="Path 203" d="M7.8,35.089a19.5,19.5,0,0,0,4.682,2.6l1.261-3.117a16.1,16.1,0,0,1-3.975-2.212Z" fill="#654aab"/>
  <path id="Path_204" data-name="Path 204" d="M3.363,19.5c0-.187,0-.372.01-.556l-3.36-.126C0,19.044,0,19.272,0,19.5a19.446,19.446,0,0,0,.735,5.309l3.087-1.481A16.112,16.112,0,0,1,3.363,19.5Z" fill="#654aab"/>
  <path id="Path_205" data-name="Path 205" d="M1.721,27.509a19.539,19.539,0,0,0,2.889,4.569L7.145,29.87A16.164,16.164,0,0,1,4.54,25.55Z" fill="#654aab"/>
  <path id="Path_206" data-name="Path 206" d="M6.33,10.184,3.587,8.243A19.417,19.417,0,0,0,.456,15.3l3.252.874A16.08,16.08,0,0,1,6.33,10.184Z" fill="#654aab"/>
  <path id="Path_207" data-name="Path 207" d="M19.5,35.638a16.163,16.163,0,0,1-2.778-.24L16.1,38.7a19.587,19.587,0,0,0,3.4.3c.576,0,1.145-.026,1.708-.076l-1.054-3.3C19.937,35.633,19.719,35.638,19.5,35.638Z" fill="#654aab"/>
</svg>
