<svg xmlns="http://www.w3.org/2000/svg" xmlns:xlink="http://www.w3.org/1999/xlink" width="83" height="83" viewBox="0 0 83 83">
  <defs>
    <linearGradient id="linear-gradient" x1="0.5" x2="0.5" y2="1" gradientUnits="objectBoundingBox">
      <stop offset="0" stop-color="#654aab"/>
      <stop offset="1" stop-color="#e77783"/>
    </linearGradient>
    <filter id="Ellipse_120" x="0" y="0" width="83" height="83" filterUnits="userSpaceOnUse">
      <feOffset dy="3" input="SourceAlpha"/>
      <feGaussianBlur stdDeviation="3" result="blur"/>
      <feFlood flood-opacity="0.161"/>
      <feComposite operator="in" in2="blur"/>
      <feComposite in="SourceGraphic"/>
    </filter>
    <clipPath id="clip-path">
      <rect id="Rectangle_1615" data-name="Rectangle 1615" width="44" height="44" fill="url(#linear-gradient)"/>
    </clipPath>
  </defs>
  <g id="Yes" transform="translate(9 6)">
    <g transform="matrix(1, 0, 0, 1, -9, -6)" filter="url(#Ellipse_120)">
      <circle id="Ellipse_120-2" data-name="Ellipse 120" cx="32.5" cy="32.5" r="32.5" transform="translate(9 6)" fill="#fff"/>
    </g>
    <g id="Group_359" data-name="Group 359" transform="translate(11 12)" clip-path="url(#clip-path)">
      <path id="Path_220" data-name="Path 220" d="M39.807,5.624a11.627,11.627,0,0,0-8.648-3.764A10.877,10.877,0,0,0,24.365,4.2a13.9,13.9,0,0,0-2.747,2.868A13.891,13.891,0,0,0,18.872,4.2a10.876,10.876,0,0,0-6.793-2.345A11.627,11.627,0,0,0,3.43,5.624,13.515,13.515,0,0,0,0,14.853c0,3.657,1.363,7,4.288,10.534,2.617,3.158,6.379,6.364,10.735,10.076,1.487,1.268,3.173,2.7,4.924,4.235a2.538,2.538,0,0,0,3.342,0c1.751-1.531,3.438-2.969,4.926-4.237,4.355-3.711,8.117-6.917,10.734-10.075,2.926-3.53,4.288-6.877,4.288-10.534A13.514,13.514,0,0,0,39.807,5.624Z" transform="translate(0.404 0.889)" fill="url(#linear-gradient)"/>
    </g>
  </g>
</svg>
