<svg xmlns="http://www.w3.org/2000/svg" xmlns:xlink="http://www.w3.org/1999/xlink" width="26" height="26" viewBox="0 0 26 26">
  <defs>
    <clipPath id="clip-path">
      <rect id="Rectangle_1604" data-name="Rectangle 1604" width="26" height="26" fill="#fff"/>
    </clipPath>
  </defs>
  <g id="Group_331" data-name="Group 331" clip-path="url(#clip-path)">
    <path id="Path_186" data-name="Path 186" d="M8.624,3v7.665a1.281,1.281,0,0,0-.814,1.183,1.308,1.308,0,0,0,1.331,1.284,1.345,1.345,0,0,0,1.1-.555h5.19V11.12H10.237a1.328,1.328,0,0,0-.651-.481V3Z" transform="translate(3.357 1.29)" fill="#fff"/>
    <path id="Path_187" data-name="Path 187" d="M24.452,12.869A12.861,12.861,0,0,0,2.989,3.3L4.471,4.95a10.646,10.646,0,1,1,12.468,17.12l-.769-1.436L13.655,24.48l5.251,1.257-.918-1.712A12.872,12.872,0,0,0,24.452,12.869Z" transform="translate(1.285 0)" fill="#fff"/>
    <path id="Path_188" data-name="Path 188" d="M3.6,16.735a12.865,12.865,0,0,0,3.09,1.718L7.522,16.4A10.624,10.624,0,0,1,4.9,14.937Z" transform="translate(1.547 6.42)" fill="#fff"/>
    <path id="Path_189" data-name="Path 189" d="M2.218,9.135c0-.123,0-.245.007-.367L.007,8.685C0,8.834,0,8.985,0,9.135a12.832,12.832,0,0,0,.485,3.5l2.037-.977A10.633,10.633,0,0,1,2.218,9.135Z" transform="translate(0 3.733)" fill="#fff"/>
    <path id="Path_190" data-name="Path 190" d="M.794,13.085A12.894,12.894,0,0,0,2.7,16.1l1.673-1.457a10.665,10.665,0,0,1-1.719-2.851Z" transform="translate(0.341 5.069)" fill="#fff"/>
    <path id="Path_191" data-name="Path 191" d="M4.087,5.085,2.276,3.8A12.813,12.813,0,0,0,.21,8.463l2.146.577A10.612,10.612,0,0,1,4.087,5.085Z" transform="translate(0.09 1.635)" fill="#fff"/>
    <path id="Path_192" data-name="Path 192" d="M9.674,16.5a10.65,10.65,0,0,1-1.834-.159L7.43,18.518a12.91,12.91,0,0,0,2.245.2c.38,0,.755-.017,1.127-.05l-.7-2.178C9.962,16.493,9.819,16.5,9.674,16.5Z" transform="translate(3.194 7.023)" fill="#fff"/>
  </g>
</svg>
