<svg xmlns="http://www.w3.org/2000/svg" width="631.15" height="631.25" viewBox="0 0 631.15 631.25">
  <g id="Group_216" data-name="Group 216" transform="translate(-0.048)">
    <path id="Path_82" data-name="Path 82" d="M466.6,115.077l-9.444,2.994-50.293,4.481-14.206,22.686-10.307-3.276-40.027-36.087-5.806-18.767-7.777-20.013L303.582,44.53l-29.677-5.807-.684,13.583L302.3,80.678l14.226,16.758-15.995,8.359-13.02-3.838L268,93.819l.662-15.733-25.6-10.529-8.5,36.992-25.8,5.847,2.553,20.636,33.616,6.47,5.806-32.973,27.75,4.1,12.9,7.555h20.695l14.167,28.372,37.554,38.1-2.754,14.808-30.28-3.858-52.323,26.424-37.674,45.189-4.9,20.014H222.345l-25.2-11.614-24.474,11.614,6.087,25.819,10.651-12.277,18.727-.582-1.307,23.187,15.512,4.54,15.492,17.4,25.3-7.113,28.895,4.56,33.555,9.022,16.758,1.969,28.413,32.25,54.835,32.25-35.465,67.756-37.434,17.4-14.2,38.72L284.313,576.3l-5.767,20.858C417.03,563.8,520.047,439.4,520.047,290.672A314.232,314.232,0,0,0,466.6,115.077Z" transform="translate(111.151 24.933)" fill="rgba(161,125,255,0.13)"/>
    <path id="Path_83" data-name="Path 83" d="M351.9,421.292l-22.986-42.618,21.1-43.964-21.1-6.309-23.69-23.79L252.74,292.836l-17.42-36.45v21.642h-7.675L182.414,216.7V166.328L149.26,112.419,96.616,121.8H61.151L43.309,110.107,66.074,92.064,43.369,97.308A313.663,313.663,0,0,0,.048,256.367c0,174.269,141.276,315.605,315.564,315.605a330.232,330.232,0,0,0,39.6-2.753l-3.3-38.237s14.488-56.785,14.488-58.713C366.388,470.319,351.9,421.292,351.9,421.292Z" transform="translate(0 59.278)" fill="rgba(161,125,255,0.13)"/>
    <path id="Path_84" data-name="Path 84" d="M89.04,101.772l56.06-7.816,25.84-14.166,29.075,8.379L246.471,85.6l15.914-25.016L285.593,64.4l56.36-5.284,15.533-17.12,21.9-14.628,30.984,4.662,11.292-1.708A314.585,314.585,0,0,0,43.951,114.753h.161ZM300.663,31.386l32.23-17.742L353.587,25.6,323.629,48.4l-28.613,2.873-12.88-8.359ZM205.2,33.978l14.226,5.927,18.627-5.927L248.2,51.559l-43,11.292-20.675-12.1C184.5,50.756,204.737,37.735,205.2,33.978Z" transform="translate(28.268)" fill="rgba(161,125,255,0.13)"/>
  </g>
</svg>
