<svg xmlns="http://www.w3.org/2000/svg" xmlns:xlink="http://www.w3.org/1999/xlink" width="189" height="189" viewBox="0 0 189 189">
  <defs>
    <clipPath id="clip-path">
      <rect id="Rectangle_1554" data-name="Rectangle 1554" width="189" height="189" fill="#fff"/>
    </clipPath>
  </defs>
  <g id="Group_252" data-name="Group 252" clip-path="url(#clip-path)">
    <path id="Path_136" data-name="Path 136" d="M186.228,111.441,155.76,30.416c-.009-.016-.008-.031-.016-.047l-.008-.008a27.56,27.56,0,0,0-53.361,9.7V75.5H86.625V40.063a27.565,27.565,0,0,0-53.369-9.694c-.008.016-.008.031-.016.047l-30.468,81a.008.008,0,0,1-.008.008,43.318,43.318,0,1,0,83.861,15.262V122.75h15.75v3.938a43.313,43.313,0,1,0,83.853-15.246ZM43.313,154.25a27.563,27.563,0,1,1,27.563-27.562A27.593,27.593,0,0,1,43.313,154.25Zm102.375,0a27.58,27.58,0,1,1,27.563-27.562A27.593,27.593,0,0,1,145.688,154.25Z" transform="translate(0 3.25)" fill="rgba(101,74,171,0.5)"/>
  </g>
</svg>
