<svg xmlns="http://www.w3.org/2000/svg" width="27.28" height="31.5" viewBox="0 0 27.28 31.5">
  <g id="Group_196" data-name="Group 196" transform="translate(-3.35)">
    <path id="Path_19" data-name="Path 19" d="M16.99,0,3.35,7.875v15.75L16.99,31.5l13.64-7.875V7.875Z" transform="translate(0)" fill="#82d2ff"/>
    <path id="Path_20" data-name="Path 20" d="M16.99,15.75V0L3.35,7.875Z" transform="translate(0)" fill="#08b7fc"/>
    <path id="Path_21" data-name="Path 21" d="M3.35,12.5V28.25l13.64-7.875Z" transform="translate(0 -4.625)" fill="#006dff"/>
    <path id="Path_22" data-name="Path 22" d="M38.64,12.5,25,20.375,38.64,28.25Z" transform="translate(-8.011 -4.625)" fill="#08b7fc"/>
    <path id="Path_23" data-name="Path 23" d="M16.99,25,3.35,32.875,16.99,40.75Z" transform="translate(0 -9.25)" fill="#0050c0"/>
    <path id="Path_24" data-name="Path 24" d="M25,40.75l13.64-7.875L25,25Z" transform="translate(-8.011 -9.25)" fill="#006dff"/>
    <path id="Path_25" data-name="Path 25" d="M28.179,24.224V15.335l-7.7-4.444-7.7,4.444v8.889l7.7,4.444Z" transform="translate(-3.49 -4.03)" fill="#82d2ff"/>
    <path id="Path_26" data-name="Path 26" d="M32.7,24.224V15.335L25,10.891V28.669Z" transform="translate(-8.011 -4.03)" fill="#55cbff"/>
  </g>
</svg>
