<svg xmlns="http://www.w3.org/2000/svg" width="359.73" height="384" viewBox="0 0 359.73 384">
  <path id="Path_81" data-name="Path 81" d="M81.059,0V23.51H54.539l51.737,49.057A100.712,100.712,0,0,1,266.61,94.321c1.473-.065,2.953-.1,4.443-.1a100.812,100.812,0,0,1,11.755,200.937V326.4H318v23.51h-35.2V384H259.3V349.906H222.564V326.4H259.3V295.154a101.01,101.01,0,0,1-76.51-51.463c-1.473.065-2.953.1-4.441.1A100.77,100.77,0,0,1,91.835,91.274L35.646,38V67.2H12.136V0ZM271.051,272.332A77.3,77.3,0,0,0,276,117.89,100.871,100.871,0,0,1,207.79,239.4,77.263,77.263,0,0,0,271.051,272.332ZM197.217,217.95a77.335,77.335,0,0,0,54.961-97.888,77.332,77.332,0,0,0-54.961,97.888ZM173.4,220.121A100.871,100.871,0,0,1,241.6,98.607,77.289,77.289,0,1,0,173.4,220.121Z" transform="translate(-12.136)" fill="rgba(126,126,126,0.5)"/>
</svg>
