<svg xmlns="http://www.w3.org/2000/svg" width="583.895" height="479.278" viewBox="0 0 583.895 479.278">
  <g id="Group_217" data-name="Group 217" transform="translate(-0.747 -0.96)">
    <path id="Path_85" data-name="Path 85" d="M317.166,197.034a70.035,70.035,0,0,0-119.557-49.521L167.18,177.944a11.634,11.634,0,0,1-16.447,0L120.3,147.512A70.035,70.035,0,1,0,21.26,246.557l99.683,99.682a53.755,53.755,0,0,0,76.026,0l99.684-99.682a69.57,69.57,0,0,0,20.512-49.523Z" transform="translate(0 118.252)" fill="rgba(254,133,140,0.35)"/>
    <path id="Path_86" data-name="Path 86" d="M534.7,38.582a128.155,128.155,0,0,0-181.254,0L301.364,90.667a11.631,11.631,0,0,1-16.448,0L232.833,38.582A128.164,128.164,0,1,0,51.581,219.833l2.276,2.275c1.5-.072,3.009-.114,4.528-.114a92.69,92.69,0,0,1,65.969,27.329l22.206,22.208,22.206-22.208A93.293,93.293,0,0,1,300.7,381.255l-34.814,34.814a100.527,100.527,0,0,0,45.837,2.025,66.842,66.842,0,0,1,79.831-55.113L534.7,219.833a128.15,128.15,0,0,0,0-181.25ZM487.433,234.2l-16.448-16.444,15.467-15.467L502.9,218.74Zm30.825-30.818-16.444-16.454a81.649,81.649,0,0,0-27-133.373L483.6,32.024a104.905,104.905,0,0,1,34.655,171.363Z" transform="translate(12.396)" fill="rgba(254,133,140,0.35)"/>
  </g>
</svg>
