<svg xmlns="http://www.w3.org/2000/svg" xmlns:xlink="http://www.w3.org/1999/xlink" width="637" height="637" viewBox="0 0 637 637">
  <defs>
    <clipPath id="clip-path">
      <rect id="Rectangle_1540" data-name="Rectangle 1540" width="637" height="637" transform="translate(0 0.335)" fill="rgba(161,125,255,0.13)"/>
    </clipPath>
  </defs>
  <g id="Group_218" data-name="Group 218" transform="translate(0 -0.335)" clip-path="url(#clip-path)">
    <path id="Path_87" data-name="Path 87" d="M282.511,100.892,55.208,288.279a5.373,5.373,0,0,1-.2,1.185,5.411,5.411,0,0,0-.2,1.178v189.75a24.3,24.3,0,0,0,7.513,17.787A24.332,24.332,0,0,0,80.11,505.7h151.8V353.9H333.117v151.81H484.911a25.7,25.7,0,0,0,25.309-25.314V290.642a5.582,5.582,0,0,0-.4-2.363Z" transform="translate(36.159 66.561)" fill="rgba(161,125,255,0.13)"/>
    <path id="Path_88" data-name="Path 88" d="M632.94,286.281l-86.57-71.948V53.044A12.184,12.184,0,0,0,533.719,40.4h-75.9a12.167,12.167,0,0,0-12.649,12.648V130.13L348.716,49.483Q336.079,39.2,318.676,39.2T288.634,49.483L4.393,286.281a11.482,11.482,0,0,0-4.348,8.5,12.8,12.8,0,0,0,2.765,9.3l24.509,29.253a13.482,13.482,0,0,0,8.3,4.352,14.7,14.7,0,0,0,9.491-2.767l273.555-228.1,273.56,228.1a12.18,12.18,0,0,0,8.3,2.757h1.188a13.5,13.5,0,0,0,8.3-4.345l24.511-29.249a12.8,12.8,0,0,0,2.757-9.3A11.52,11.52,0,0,0,632.94,286.281Z" transform="translate(0 25.864)" fill="rgba(161,125,255,0.13)"/>
  </g>
</svg>
