<svg xmlns="http://www.w3.org/2000/svg" xmlns:xlink="http://www.w3.org/1999/xlink" width="26" height="26" viewBox="0 0 26 26">
  <defs>
    <clipPath id="clip-path">
      <rect id="Rectangle_1631" data-name="Rectangle 1631" width="26" height="26" fill="#5330ad"/>
    </clipPath>
  </defs>
  <g id="Group_425" data-name="Group 425" clip-path="url(#clip-path)">
    <path id="Path_253" data-name="Path 253" d="M14.034,13.979a2.6,2.6,0,1,1,0-3.68A2.611,2.611,0,0,1,14.034,13.979Z" transform="translate(0.663 0.66)" fill="#5330ad"/>
    <path id="Path_254" data-name="Path 254" d="M17.157,18.128a1.239,1.239,0,0,1-.875-2.116,5.178,5.178,0,0,0,0-7.333,1.239,1.239,0,1,1,1.751-1.754,7.656,7.656,0,0,1,0,10.841A1.235,1.235,0,0,1,17.157,18.128Z" transform="translate(1.101 0.454)" fill="#5330ad"/>
    <path id="Path_255" data-name="Path 255" d="M19.778,22.012A1.239,1.239,0,0,1,18.9,19.9a10.329,10.329,0,0,0,0-14.629,1.239,1.239,0,1,1,1.751-1.754,12.808,12.808,0,0,1,0,18.138A1.236,1.236,0,0,1,19.778,22.012Z" transform="translate(1.282 0.218)" fill="#5330ad"/>
    <path id="Path_256" data-name="Path 256" d="M7.162,18.127a1.236,1.236,0,0,1-.875-.362,7.656,7.656,0,0,1,0-10.841A1.239,1.239,0,0,1,8.037,8.678a5.178,5.178,0,0,0,0,7.333,1.239,1.239,0,0,1-.875,2.116Z" transform="translate(0.279 0.454)" fill="#5330ad"/>
    <path id="Path_257" data-name="Path 257" d="M4.639,22.012a1.235,1.235,0,0,1-.875-.362,12.808,12.808,0,0,1,0-18.138A1.239,1.239,0,0,1,5.514,5.266a10.329,10.329,0,0,0,0,14.629,1.239,1.239,0,0,1-.875,2.116Z" transform="translate(0 0.218)" fill="#5330ad"/>
  </g>
</svg>
