<svg xmlns="http://www.w3.org/2000/svg" width="29.175" height="22.128" viewBox="0 0 29.175 22.128">
  <defs>
    <style>
      .cls-1 {
        fill: #3e3e3e;
      }
    </style>
  </defs>
  <path id="Path_69" data-name="Path 69" class="cls-1" d="M4.732-1016.593a3.684,3.684,0,0,0-3.078,2.553c-.041.137-.094.337-.115.446-.037.185-.039.6-.039,8.064v7.869l.05.226a3.676,3.676,0,0,0,3.26,2.94c.331.03,22.192.03,22.523,0a3.652,3.652,0,0,0,3.158-2.549,3.725,3.725,0,0,0,.163-.923c.026-.422.028-14.735,0-15.16a3.486,3.486,0,0,0-.379-1.447A3.609,3.609,0,0,0,29.027-1016a3.818,3.818,0,0,0-1.3-.546l-.218-.05-11.351,0C9.917-1016.6,4.774-1016.6,4.732-1016.593Zm22.445,1.874.144.037-5.613,4.865c-3.089,2.675-5.624,4.864-5.633,4.864-.026,0-11.251-9.727-11.233-9.735.165-.065.17-.065,11.242-.065C26.232-1014.754,27.042-1014.752,27.177-1014.719ZM11.1-1006.766c0,.009-1.737,2.02-3.857,4.468l-3.853,4.451-.033-.1c-.028-.089-.033-1.045-.039-7.525,0-5.191,0-7.468.017-7.574.013-.085.039-.2.057-.266l.033-.113,3.839,3.324C9.379-1008.277,11.105-1006.775,11.1-1006.766Zm17.639-6.584c.087.226.085.039.081,7.853-.007,6.571-.011,7.477-.039,7.557l-.033.094L24.9-1002.3c-2.118-2.446-3.85-4.455-3.853-4.466s7.627-6.643,7.655-6.645C28.711-1013.409,28.729-1013.383,28.742-1013.35Zm-5.191,12.337c2.155,2.49,3.924,4.538,3.933,4.553s-.046.039-.185.072l-.2.046-11.09-.007-11.09-.006L4.78-996.4l-.137-.046,3.931-4.542c2.164-2.5,3.942-4.543,3.95-4.543s.7.588,1.528,1.306c1.008.875,1.545,1.326,1.619,1.36a.942.942,0,0,0,.8,0q.114-.055,1.635-1.371c.834-.725,1.519-1.315,1.521-1.31S21.4-1003.5,23.551-1001.014Z" transform="translate(-1.5 1016.6)"/>
</svg>
