<svg xmlns="http://www.w3.org/2000/svg" xmlns:xlink="http://www.w3.org/1999/xlink" width="56" height="56" viewBox="0 0 56 56">
  <defs>
    <clipPath id="clip-path">
      <rect id="Rectangle_1544" data-name="Rectangle 1544" width="29" height="29" fill="#fff"/>
    </clipPath>
  </defs>
  <g id="Group_230" data-name="Group 230" transform="translate(0.5 0.5)">
    <circle id="Ellipse_93" data-name="Ellipse 93" cx="27.5" cy="27.5" r="27.5" fill="#fff" stroke="rgba(83,48,173,0.47)" stroke-width="1"/>
    <g id="Group_229" data-name="Group 229" transform="translate(13 13)" clip-path="url(#clip-path)">
      <path id="Path_109" data-name="Path 109" d="M39.932,25.184h-14.5a1.5,1.5,0,1,0,0,3h14.5a1.5,1.5,0,0,0,0-3ZM28.078,27.067a.419.419,0,0,1-.419.418h-.767a.419.419,0,0,1-.418-.418V26.3a.419.419,0,0,1,.418-.419h.767a.419.419,0,0,1,.419.419Zm10.813,0a.419.419,0,0,1-.418.418H37.7a.419.419,0,0,1-.419-.418V26.3a.419.419,0,0,1,.419-.419h.767a.419.419,0,0,1,.418.419Z" transform="translate(-18.182 -8.291)" fill="#654aab"/>
      <path id="Path_110" data-name="Path 110" d="M23.75,29.122a7.845,7.845,0,0,1-.332-2.184V25.433a8.185,8.185,0,0,1,.146-1.4H22.519a2.546,2.546,0,0,0,0,5.092Z" transform="translate(-20.429 -8.95)" fill="#654aab"/>
      <path id="Path_111" data-name="Path 111" d="M37.844,24.03H36.8a8.185,8.185,0,0,1,.146,1.4v1.505a7.846,7.846,0,0,1-.332,2.184h1.231a2.546,2.546,0,0,0,0-5.092Z" transform="translate(-10.935 -8.95)" fill="#654aab"/>
      <path id="Path_112" data-name="Path 112" d="M43.985,27.369a6.713,6.713,0,0,0-6.713-6.713h-7.85a6.713,6.713,0,0,0-6.713,6.713v1.5a6.713,6.713,0,0,0,6.713,6.714h7.85a6.713,6.713,0,0,0,6.713-6.714Zm-3.354,4.239h-14.5a2.337,2.337,0,0,1,0-4.674h14.5a2.337,2.337,0,1,1,0,4.674Z" transform="translate(-18.881 -10.878)" fill="#654aab"/>
      <path id="Path_113" data-name="Path 113" d="M35.711,18.8a1.937,1.937,0,0,0,1.541,1.916v7h.837v-7A1.939,1.939,0,0,0,39.633,18.8a1.961,1.961,0,1,0-3.922,0Z" transform="translate(-11.451 -13.058)" fill="#654aab"/>
    </g>
  </g>
</svg>
