<svg xmlns="http://www.w3.org/2000/svg" width="41.433" height="41.433" viewBox="0 0 41.433 41.433">
  <path id="Path_184" data-name="Path 184" d="M41.649,43.53l-5.858-.669a4.591,4.591,0,0,0-3.783,1.315L27.764,48.42a34.7,34.7,0,0,1-15.2-15.2l4.267-4.267a4.592,4.592,0,0,0,1.315-3.783l-.669-5.812a4.616,4.616,0,0,0-4.59-4.083H8.9A4.577,4.577,0,0,0,4.284,20.05,39.191,39.191,0,0,0,40.934,56.7a4.577,4.577,0,0,0,4.774-4.613V48.1A4.571,4.571,0,0,0,41.649,43.53Z" transform="translate(-4.275 -15.276)" fill="rgba(101,74,171,0.5)"/>
</svg>
