<svg id="Group_336" data-name="Group 336" xmlns="http://www.w3.org/2000/svg" width="69" height="33.781" viewBox="0 0 69 33.781">
  <rect id="Rectangle_1609" data-name="Rectangle 1609" width="44.438" height="30.781" rx="2.5" transform="translate(23.063 1.5)" fill="none" stroke="#654aab" stroke-width="3"/>
  <path id="Path_208" data-name="Path 208" d="M30.1,6.962a1.424,1.424,0,0,0,0,2.369L44.424,20.452a2.082,2.082,0,0,0,2.43,0L61.178,9.331a1.424,1.424,0,0,0,0-2.369,2.611,2.611,0,0,0-3.051,0l-12.5,9.689-12.5-9.7A2.607,2.607,0,0,0,30.1,6.962Z" fill="#654aab"/>
  <path id="Path_209" data-name="Path 209" d="M41.968,18.382,38.749,15.92,30.1,23.305a1.657,1.657,0,0,0,0,2.606,2.416,2.416,0,0,0,3.034.015Zm7.305-.023,8.855,7.552a2.421,2.421,0,0,0,3.051,0,1.657,1.657,0,0,0,0-2.606l-8.772-7.492Z" fill="#654aab" fill-rule="evenodd"/>
  <line id="Line_41" data-name="Line 41" x2="14.969" transform="translate(1.5 9.281)" fill="none" stroke="#654aab" stroke-linecap="round" stroke-width="3"/>
  <line id="Line_42" data-name="Line 42" x2="9.937" transform="translate(6.531 16.469)" fill="none" stroke="#654aab" stroke-linecap="round" stroke-width="3"/>
  <line id="Line_43" data-name="Line 43" x2="6.344" transform="translate(10.125 24.375)" fill="none" stroke="#654aab" stroke-linecap="round" stroke-width="3"/>
</svg>
