<svg id="Group_339" data-name="Group 339" xmlns="http://www.w3.org/2000/svg" width="50.965" height="13.064" viewBox="0 0 50.965 13.064">
  <path id="Path_211" data-name="Path 211" d="M19.6,0H11.791V13.021h3.125V7.943H17.39l1.562,5.078h2.995L20.254,7.943c1.749,0,1.708-1.7,1.694-2.244,0-.039,0-.073,0-.1V2.3A2.243,2.243,0,0,0,19.6,0ZM14.916,2.083V5.989h3.516c.391,0,1.172-.2,1.172-.977V3.06c0-.326-.117-.977-.586-.977Z" transform="translate(4.902 0)" fill="#828282" fill-rule="evenodd"/>
  <path id="Path_212" data-name="Path 212" d="M36.8,0c2.322,0,2.177,2.305,2.177,3.074H31.725V9.99h7.256c0,2.459-1.451,3.074-2.177,3.074H30.274c-1.451,0-1.451-1.537-1.451-2.305V2.305C28.822.461,29.79,0,30.274,0Z" transform="translate(11.982 0)" fill="#828282"/>
  <path id="Path_213" data-name="Path 213" d="M20.962,0h9.274V3.055h-6.42V5.15H28.1V7.958h-4.28V9.928h6.42v3.055H20.962Z" transform="translate(8.714 0)" fill="#828282"/>
  <circle id="Ellipse_105" data-name="Ellipse 105" cx="6.492" cy="6.492" r="6.492" transform="translate(0 0)" fill="#fd003a"/>
</svg>
