<svg id="Group_339" data-name="Group 339" xmlns="http://www.w3.org/2000/svg" width="42.471" height="10.887" viewBox="0 0 42.471 10.887">
  <path id="Path_211" data-name="Path 211" d="M18.3,0h-6.51V10.85h2.6V6.619h2.062l1.3,4.232h2.5L18.844,6.619c1.458,0,1.423-1.413,1.412-1.87,0-.033,0-.061,0-.083V1.915A1.869,1.869,0,0,0,18.3,0ZM14.4,1.736V4.991h2.93c.325,0,.977-.163.977-.814V2.55c0-.271-.1-.814-.488-.814Z" transform="translate(2.12 0)" fill="#828282" fill-rule="evenodd"/>
  <path id="Path_212" data-name="Path 212" d="M35.474,0c1.935,0,1.814,1.921,1.814,2.562H31.241V8.325h6.047c0,2.049-1.209,2.562-1.814,2.562H30.032c-1.209,0-1.209-1.281-1.209-1.921V1.921C28.822.384,29.629,0,30.032,0Z" transform="translate(5.181 0)" fill="#828282"/>
  <path id="Path_213" data-name="Path 213" d="M20.962,0H28.69V2.546H23.34V4.292h3.567v2.34H23.34V8.274h5.35v2.546H20.962Z" transform="translate(3.768 0)" fill="#828282"/>
  <ellipse id="Ellipse_105" data-name="Ellipse 105" cx="5.41" cy="5.41" rx="5.41" ry="5.41" transform="translate(0 0)" fill="#fd003a"/>
</svg>
