<svg id="free-settings-icon-3110-thumb" xmlns="http://www.w3.org/2000/svg" width="27.898" height="27.911" viewBox="0 0 27.898 27.911">
  <defs>
    <style>
      .cls-1 {
        fill: #3e3e3e;
      }
    </style>
  </defs>
  <path id="Path_70" data-name="Path 70" class="cls-1" d="M41.789-481.681a1.686,1.686,0,0,0-.8.538,1.512,1.512,0,0,0-.377,1.231,2.14,2.14,0,0,1-.049.563,8.573,8.573,0,0,1-1.355.594c-.2.068-.217.056-.6-.315A1.685,1.685,0,0,0,36.8-479.6c-.353.1-.414.148-2.208,1.936-2.035,2.035-2.06,2.066-2.048,2.8a1.6,1.6,0,0,0,.588,1.274c.371.384.384.4.315.6a8.574,8.574,0,0,1-.594,1.355,2.138,2.138,0,0,1-.563.049,3.888,3.888,0,0,0-.718.062,2.035,2.035,0,0,0-.94.829c-.136.247-.136.285-.136,2.944s0,2.7.136,2.944a2.034,2.034,0,0,0,.94.829,3.888,3.888,0,0,0,.718.062,2.141,2.141,0,0,1,.563.049,8.574,8.574,0,0,1,.594,1.355c.068.2.056.216-.315.6a1.6,1.6,0,0,0-.588,1.274c-.012.73.012.761,2.048,2.8,1.794,1.788,1.856,1.837,2.208,1.936a1.685,1.685,0,0,0,1.806-.532c.384-.371.4-.384.6-.315a8.576,8.576,0,0,1,1.355.594,2.14,2.14,0,0,1,.049.563,3.886,3.886,0,0,0,.062.718,2.034,2.034,0,0,0,.829.94c.247.136.285.136,2.944.136s2.7,0,2.944-.136a1.968,1.968,0,0,0,.817-.934,3.151,3.151,0,0,0,.074-.73,2.079,2.079,0,0,1,.049-.557,8.576,8.576,0,0,1,1.355-.594c.2-.068.217-.056.6.315a1.577,1.577,0,0,0,1.274.588c.73.006.718.012,2.74-2,2.035-2.029,2.06-2.054,2.048-2.79a1.6,1.6,0,0,0-.588-1.274c-.371-.384-.384-.4-.315-.6a8.574,8.574,0,0,1,.594-1.355,2.141,2.141,0,0,1,.563-.049,3.888,3.888,0,0,0,.718-.062,2.034,2.034,0,0,0,.94-.829c.136-.247.136-.285.136-2.944s0-2.7-.136-2.944a2.035,2.035,0,0,0-.94-.829,3.888,3.888,0,0,0-.718-.062,2.138,2.138,0,0,1-.563-.049A8.574,8.574,0,0,1,55.447-473c-.068-.2-.056-.217.315-.6a1.6,1.6,0,0,0,.588-1.274c.012-.736-.012-.761-2.048-2.79-2.023-2.01-2.01-2-2.74-2a1.578,1.578,0,0,0-1.274.588c-.384.371-.4.384-.6.315a8.573,8.573,0,0,1-1.355-.594,2.14,2.14,0,0,1-.049-.563,3.886,3.886,0,0,0-.062-.718,2.034,2.034,0,0,0-.829-.94c-.247-.136-.3-.136-2.852-.148C43.113-481.724,41.876-481.706,41.789-481.681Zm4.281,2.592a2.376,2.376,0,0,0,1.33,1.88,6.03,6.03,0,0,0,2.239.779,2.308,2.308,0,0,0,1.584-.384l.39-.266,1.083,1.089,1.076,1.089-.235.34a2.375,2.375,0,0,0-.334.643,3.234,3.234,0,0,0,.025,1.615c.179.483.6,1.466.736,1.738a2.454,2.454,0,0,0,1.819,1.188l.359.025v3.192l-.359.025a2.444,2.444,0,0,0-1.812,1.169c-.142.285-.557,1.262-.742,1.757A3.234,3.234,0,0,0,53.2-461.6a2.706,2.706,0,0,0,.334.65l.247.334-1.089,1.089-1.083,1.089-.39-.266a2.308,2.308,0,0,0-1.584-.384,6.06,6.06,0,0,0-2.245.779,2.382,2.382,0,0,0-1.324,1.88l-.025.359H42.853l-.025-.359A2.382,2.382,0,0,0,41.5-458.3a6.06,6.06,0,0,0-2.245-.779,2.308,2.308,0,0,0-1.584.384l-.39.266L36.2-459.524l-1.089-1.089.247-.334a2.706,2.706,0,0,0,.334-.65,3.234,3.234,0,0,0-.025-1.614c-.179-.482-.6-1.466-.736-1.738a2.454,2.454,0,0,0-1.819-1.188l-.359-.025v-3.192l.359-.025a2.454,2.454,0,0,0,1.819-1.188c.136-.272.557-1.256.736-1.738a3.234,3.234,0,0,0,.025-1.615,2.706,2.706,0,0,0-.334-.65l-.247-.334L36.2-475.99l1.083-1.089.39.266a2.308,2.308,0,0,0,1.584.384,6.03,6.03,0,0,0,2.239-.779,2.376,2.376,0,0,0,1.33-1.88l.025-.359h3.192Z" transform="translate(-30.5 481.719)"/>
  <path id="Path_71" data-name="Path 71" class="cls-1" d="M135.615-383.712a7.969,7.969,0,0,0-6.167,4.268,6.984,6.984,0,0,0-.847,3.582,7.205,7.205,0,0,0,.371,2.549,7.9,7.9,0,0,0,4.992,4.986,6.672,6.672,0,0,0,2.518.377,6.931,6.931,0,0,0,3.613-.847,7.944,7.944,0,0,0,4.157-5.487,10.239,10.239,0,0,0,.006-3.043,7.9,7.9,0,0,0-2.177-4.1,7.8,7.8,0,0,0-3.928-2.14A12.2,12.2,0,0,0,135.615-383.712Zm1.949,2.369a5.655,5.655,0,0,1,4.528,5.728,5.323,5.323,0,0,1-.569,2.227,5.8,5.8,0,0,1-2.6,2.6,5.61,5.61,0,0,1-7.961-3.99,5.578,5.578,0,0,1,1.144-4.547A5.582,5.582,0,0,1,137.563-381.343Z" transform="translate(-122.532 389.794)"/>
</svg>
