<svg id="stopwatch" xmlns="http://www.w3.org/2000/svg" width="28.354" height="33.87" viewBox="0 0 28.354 33.87">
  <path id="Path_179" data-name="Path 179" d="M15.688,5.6a14.107,14.107,0,0,1,7.481,3.137l1.436-1.5a.77.77,0,0,1,1.089-.017l.965.937a.772.772,0,0,1,.017,1.086L25.2,10.784a14.176,14.176,0,1,1-21.766-.339L1.775,8.884A.767.767,0,0,1,1.75,7.8l.929-.973A.772.772,0,0,1,3.765,6.8L5.532,8.463A14.079,14.079,0,0,1,13.2,5.557V2.481H10.475a.664.664,0,0,1-.662-.662V.662A.664.664,0,0,1,10.475,0h7.939a.664.664,0,0,1,.662.662V1.819a.664.664,0,0,1-.662.662H15.685V5.6Zm-2.666,8.906h1.21a.4.4,0,0,1,.4.4v5.058h3.724a.4.4,0,0,1,.4.4v1.21a.4.4,0,0,1-.4.4H12.62V14.91a.4.4,0,0,1,.4-.4Zm1.155-6.324A11.511,11.511,0,1,1,2.666,19.7,11.513,11.513,0,0,1,14.177,8.184Z" fill="#fff" fill-rule="evenodd"/>
</svg>
