<svg id="Group_268" data-name="Group 268" xmlns="http://www.w3.org/2000/svg" width="34.954" height="35" viewBox="0 0 34.954 35">
  <path id="Path_129" data-name="Path 129" d="M31.149,31.7c-5.356,4.372-22.078,4.372-27.325,0-5.356-4.372-4.809-23.062,0-27.981s22.516-4.918,27.325,0S36.505,27.327,31.149,31.7Z" transform="translate(-0.01 0.022)" fill="#d5616d"/>
  <path id="Path_130" data-name="Path 130" d="M17.59,24.071A25.59,25.59,0,0,1,2.4,29.973C-1.319,23.633-.554,8.222,3.818,3.741,7.753-.3,20.1-1.068,27.208,1.445,28.957,8.659,25.35,17.84,17.59,24.071Z" transform="translate(-0.002)" fill="#fe858c"/>
  <path id="Path_131" data-name="Path 131" d="M9.762,14.284l3.06-7.651h2.951L10.964,18.656h-2.3L3.75,6.633H6.7Z" transform="translate(2.796 4.975)" fill="#fff"/>
  <path id="Path_132" data-name="Path 132" d="M14.468,9.084a1.349,1.349,0,0,0-.437.874.994.994,0,0,0,.437.874,11.271,11.271,0,0,0,2.186.765,5.394,5.394,0,0,1,2.623,1.312,3.052,3.052,0,0,1,.984,2.4,3.326,3.326,0,0,1-1.2,2.623,4.782,4.782,0,0,1-3.17.984,7.369,7.369,0,0,1-5.137-2.077l1.639-1.967A6.106,6.106,0,0,0,16,16.625a1.962,1.962,0,0,0,1.2-.328,1.093,1.093,0,0,0,0-1.749,5.845,5.845,0,0,0-1.749-.656,7.314,7.314,0,0,1-3.06-1.312,3.136,3.136,0,0,1-.984-2.514,3.326,3.326,0,0,1,1.2-2.623,4.626,4.626,0,0,1,3.06-.874,6.23,6.23,0,0,1,2.4.437,6.479,6.479,0,0,1,2.077,1.2L18.84,10.177a5.514,5.514,0,0,0-3.279-1.2A.984.984,0,0,0,14.468,9.084Z" transform="translate(8.047 4.928)" fill="#fff"/>
</svg>
