<svg id="Group_228" data-name="Group 228" xmlns="http://www.w3.org/2000/svg" width="55" height="55" viewBox="0 0 55 55">
  <circle id="Ellipse_92" data-name="Ellipse 92" cx="27.5" cy="27.5" r="27.5" fill="#fe858c"/>
  <path id="Path_108" data-name="Path 108" d="M12.421,31.73H30.983a2.464,2.464,0,0,0,2.132-3.7L23.834,12a2.464,2.464,0,0,0-4.265,0L10.289,28.032A2.465,2.465,0,0,0,12.421,31.73ZM21.7,23.1a1.236,1.236,0,0,1-1.233-1.232V19.4a1.233,1.233,0,0,1,2.465,0V21.87A1.236,1.236,0,0,1,21.7,23.1Zm-1.233,4.93h2.465V25.567H20.469Z" transform="translate(5.543 6.29)" fill="#f2f2f2" fill-rule="evenodd"/>
</svg>
